<svg width="200" height="60" viewBox="0 0 200 60" fill="none" xmlns="http://www.w3.org/2000/svg">
<path d="M45.632 55.7134C54.6765 50.6568 60.8027 40.9013 60.8027 29.6963C60.8027 13.2955 47.6777 0 31.4871 0C15.2966 0 2.17151 13.2955 2.17151 29.6963C2.17151 40.9013 8.29772 50.6568 17.3423 55.7134H45.632Z" fill="#D71921"/>
<mask id="mask0" mask-type="alpha" maskUnits="userSpaceOnUse" x="0" y="22" width="55" height="38">
<path d="M1.85052 39.0267C1.00457 41.5753 0.616839 45.3983 0.528719 46.9912C0.528719 46.9912 0.528719 51.5044 2.11488 52.5663C1.48041 52.9911 0.440599 54.6902 0 55.4866C0 56.1061 0.0528719 57.4512 0.26436 57.8759C0.475847 58.3007 2.29112 59.4688 3.17232 59.9998H6.34463V58.9379C6.25651 59.1149 5.55155 58.6724 5.55155 58.6724C5.12858 58.0352 5.72779 56.991 6.08027 56.5485L7.66643 59.4688L13.7467 59.7343V58.6724L11.3675 57.345C11.5437 55.7521 11.8962 52.0884 11.8962 50.177C11.8962 48.2655 15.5972 46.0177 17.4477 45.1328C17.2715 45.7523 16.919 47.3628 16.919 48.8495C16.919 50.3362 17.9765 53.5397 18.5052 54.9556L20.0913 57.345H26.436V56.5485L23.7924 54.9556V50.177C23.7924 48.9026 24.8498 47.1682 25.3785 46.4602V51.7698L30.4014 57.345H36.2173V56.5485L33.5737 54.1592V47.5221C33.6618 46.3717 34.3139 43.7523 36.2173 42.478C38.1207 41.2037 39.1252 38.2303 39.3896 36.9028L40.1827 35.5754C44.4124 34.0887 47.056 32.3011 47.8491 31.5932L52.6076 30.7967V29.4693L54.1937 27.8764V26.549L53.1363 25.7526L49.964 24.6907L48.9065 24.1597L48.3778 23.6287H43.0906L42.5619 22.8323L41.5045 24.6907L39.9183 24.9561L29.6083 25.2216L25.9072 26.549L11.8962 28.9384C11.1031 29.0269 9.09397 29.5224 7.40207 30.7967C5.28719 32.3896 2.90796 35.8409 1.85052 39.0267Z" fill="white"/>
</mask>
<g mask="url(#mask0)">
<path d="M1.85052 39.0267C1.00457 41.5753 0.616839 45.3983 0.528719 46.9912C0.528719 46.9912 0.528719 51.5044 2.11488 52.5663C1.48041 52.9911 0.440599 54.6902 0 55.4866C0 56.1061 0.0528719 57.4512 0.26436 57.8759C0.475847 58.3007 2.29112 59.4688 3.17232 59.9998H6.34463V58.9379C6.25651 59.1149 5.55155 58.6724 5.55155 58.6724C5.12858 58.0352 5.72779 56.991 6.08027 56.5485L7.66643 59.4688L13.7467 59.7343V58.6724L11.3675 57.345C11.5437 55.7521 11.8962 52.0884 11.8962 50.177C11.8962 48.2655 15.5972 46.0177 17.4477 45.1328C17.2715 45.7523 16.919 47.3628 16.919 48.8495C16.919 50.3362 17.9765 53.5397 18.5052 54.9556L20.0913 57.345H26.436V56.5485L23.7924 54.9556V50.177C23.7924 48.9026 24.8498 47.1682 25.3785 46.4602V51.7698L30.4014 57.345H36.2173V56.5485L33.5737 54.1592V47.5221C33.6618 46.3717 34.3139 43.7523 36.2173 42.478C38.1207 41.2037 39.1252 38.2303 39.3896 36.9028L40.1827 35.5754C44.4124 34.0887 47.056 32.3011 47.8491 31.5932L52.6076 30.7967V29.4693L54.1937 27.8764V26.549L53.1363 25.7526L49.964 24.6907L48.9065 24.1597L48.3778 23.6287H43.0906L42.5619 22.8323L41.5045 24.6907L39.9183 24.9561L29.6083 25.2216L25.9072 26.549L11.8962 28.9384C11.1031 29.0269 9.09397 29.5224 7.40207 30.7967C5.28719 32.3896 2.90796 35.8409 1.85052 39.0267Z" fill="white"/>
<path d="M35.9531 24.4238V30.2644L38.0679 34.5122V35.5741L35.16 39.5563L28.551 35.5741V30.7954L28.0223 28.6715L25.9074 25.7512L26.4361 29.2025L26.7005 32.9193L23.7925 35.0431L27.7579 37.6979L33.0451 40.0873L34.1025 43.2731L31.4589 45.1315L26.4361 43.0076V40.0873L24.5856 39.0254L22.9994 42.7421L16.9192 44.335L15.8617 40.8837L13.7468 42.7421L7.40221 48.0518L8.98837 50.7066V55.2198L7.40221 56.5472V61.3259L17.4479 60.2639L14.8043 50.1756L16.4385 45.6624L16.9192 45.3969V46.1934L15.8617 48.3172L19.2984 50.1756V51.503H21.6776V53.0959H20.6202L19.8271 54.4233H17.4479L18.5053 57.8746L27.7579 58.6711L26.7005 55.7507L23.7925 54.4233L24.5856 48.8482L25.6024 46.7243L25.3787 44.6005L31.4589 47.919V50.7066L28.551 51.7685L26.7005 50.1756L24.5856 51.7685L27.7579 55.7507L31.4589 52.8304L33.3095 54.4233L43.3551 40.3528V34.2467L48.378 37.167L53.4008 30.7954H50.2285L49.6998 30.2644H53.9295L54.4582 27.6096H53.4008L49.171 28.6715V29.7335L49.6998 30.2644H45.47L44.4126 28.6715V26.5477L41.2403 28.1406L43.3551 32.3883V32.9193L38.861 34.2467L38.0679 28.1406L35.9531 24.4238Z" fill="#C3C4C6"/>
<path d="M0.528862 44.335L4.2299 45.1315V52.4765L6.08042 56.5472V57.8746L6.60914 58.6711V61.3259L-1.32166 60.5294L0.528862 44.335Z" fill="#C3C4C6"/>
<path d="M9.51709 29.7335L10.0458 34.2467L13.7468 37.167L16.9192 35.5741C16.2142 33.8927 13.7468 30.3706 9.51709 29.7335Z" fill="#C3C4C6"/>
<path d="M11.8962 49.9092L8.9882 50.7057L7.40204 48.0509L13.7467 42.7412L11.8962 49.9092Z" fill="#909295"/>
<path d="M15.5972 46.1925L16.919 44.3341L22.9993 42.7412L25.3785 44.5996H20.62L17.4477 45.1306L19.0339 46.7234L19.2982 50.1747L16.919 48.8473L16.1259 47.2544L17.4477 45.1306L15.5972 46.1925Z" fill="#909295"/>
<path d="M23.2636 48.8473V46.7234L25.3785 45.1306V46.458L24.5854 48.5818L23.7923 50.9712L22.7349 49.9092L23.2636 48.8473Z" fill="#909295"/>
<path d="M22.7349 53.095L23.7923 52.5641V54.9534L26.4359 56.5463V57.6082L25.9072 57.3427L25.3785 56.8118H23.7923L22.7349 56.2808L21.1487 55.7498L23.7923 54.9534L22.7349 54.157V53.095Z" fill="#909295"/>
<path d="M20.0913 55.7498L19.8269 54.4224H18.2408L16.6546 57.8737L20.0913 55.7498Z" fill="#909295"/>
<path d="M4.22973 39.2911V40.353L1.85049 38.7601L-0.528748 38.2291L1.58613 30.7956L6.87332 34.5124L4.22973 39.2911Z" fill="#EAECEC"/>
<path d="M4.22973 45.1317L7.40204 48.052L8.9882 50.7068V55.22L7.40204 56.5474V61.3261H6.60896V58.9368L6.08024 57.8748V56.5474L4.22973 52.4781V45.1317Z" fill="#EAECEC"/>
<path d="M16.919 52.8307L19.2982 51.5033H21.6775V53.0962H20.62L19.8269 54.4236H17.4477L16.919 52.8307Z" fill="#EAECEC"/>
<path d="M25.3785 46.7246V44.6007L26.9647 45.1317L26.7003 50.1759L24.5854 51.7687V48.8484L25.3785 46.7246Z" fill="#EAECEC"/>
<path d="M27.7577 55.751L30.4013 53.6271L31.7231 55.751H27.7577Z" fill="#EAECEC"/>
<path d="M47.056 24.955L45.7342 21.2383L44.4124 26.5479V28.6718L45.4698 30.2647H49.6996L50.2283 30.7956H53.4006L55.5155 27.0789H52.3432H48.1134L47.056 26.017V24.955Z" fill="#EAECEC"/>
<path d="M23.2636 36.9017L23.7923 35.0434L27.7577 37.6982L26.4359 40.0875L24.5854 39.0256L23.2636 36.9017Z" fill="#EAECEC"/>
<path d="M29.3439 23.3621L31.7231 27.3444L35.9529 28.6718V24.4241L36.746 21.5038L29.3439 23.3621Z" fill="#EAECEC"/>
<path d="M39.1251 23.0967L41.24 28.1408L44.4123 26.5479L45.7341 21.2383L39.1251 23.0967Z" fill="#D7D8D9"/>
<path d="M1.85038 38.7601L0.528581 44.3352L0.775316 44.3883L0.528581 45.1317L5.81577 55.22L6.08013 56.5474L7.40193 58.9368V56.5474L0.827786 44.3996L4.22962 45.1317V40.353L1.85038 38.7601Z" fill="#D7D8D9"/>
<path d="M31.723 55.751L33.3092 54.6891L31.4587 52.8307L30.4012 53.6271L31.723 55.751Z" fill="#D7D8D9"/>
<path d="M22.7348 49.9104L21.6774 51.5033V53.0962H22.7348L23.7922 52.5652V50.9723L22.7348 49.9104Z" fill="#D7D8D9"/>
<path d="M13.7466 31.5921V37.1672L16.9189 35.5743C16.9189 34.0876 14.804 32.3 13.7466 31.5921Z" fill="#D7D8D9"/>
<path d="M0.264221 57.8749L1.0573 55.22L2.11474 56.5474V58.4058L0.528581 59.2023L0.264221 57.8749Z" fill="#D7D8D9"/>
<path d="M42.8262 32.9198L43.8837 35.0436L50.4927 33.1852L46.5273 30.7959H44.4124L43.355 32.3888L42.8262 32.9198Z" fill="#909295"/>
<path d="M23.7924 35.0436L26.7003 32.9198L28.5508 35.5746L27.7578 37.6984L23.7924 35.0436Z" fill="#909295"/>
<path d="M2.11487 52.5655L1.05743 55.2203L2.11487 56.5477L3.70103 55.2203V54.6893L2.11487 52.5655Z" fill="#909295"/>
<path d="M5.55155 57.8751H2.64359V58.937H5.28719L1.85051 60.2644L7.40206 60.8618V61.0609L7.59262 60.8823L9.25258 61.0609L8.28795 60.2305L11.3675 57.3441L8.98822 55.2203L7.40206 56.5477V59.468L5.55155 57.8751Z" fill="#909295"/>
<path d="M26.436 54.9548L28.2865 58.1407L36.2173 58.9371L37.5391 56.2823H30.6657L26.436 54.9548Z" fill="#909295"/>
<path d="M52.6076 30.7959L53.1363 32.1233L40.1827 37.433L38.0678 35.5746V34.5127L42.8263 32.9198L43.355 32.3888L44.4124 30.7959H52.6076Z" fill="#606163"/>
<path d="M40.1827 43.2736L35.1599 39.5568L33.045 40.0878L33.8381 43.2736L31.4588 45.1319V50.7071L28.5509 51.769L27.2291 55.2203L27.7578 55.7512L31.4588 52.8309L33.3093 54.6893L40.1827 43.2736Z" fill="#606163"/>
<path d="M3.70106 55.2203L2.11491 52.5655L0.528748 45.6629V44.601L3.4367 50.4416L3.17234 52.5655L6.0803 56.5477L6.34466 57.0786L5.28722 59.468L1.58619 59.999L0.528748 59.2025L2.11491 58.4061V56.5477L3.70106 55.2203Z" fill="#606163"/>
<path d="M11.3675 57.3441L6.87338 59.999L15.8616 61.5919L14.2754 57.0786L11.3675 57.3441Z" fill="#606163"/>
<path d="M41.5043 24.69L47.0559 24.9555V26.0174L48.1133 27.0793H49.6995L50.2282 26.5484H55.7798L46.2628 22.5661L40.7113 22.0352L41.5043 24.69Z" fill="white"/>
<path d="M4.22962 48.8489V45.1321L5.28706 45.6631L7.40193 48.0524L8.98809 50.7073L4.22962 48.8489Z" fill="white"/>
<path d="M2.11474 52.5656L2.90782 53.6276L1.0573 55.2205L0.264221 57.8753L0.792941 54.955L2.11474 52.5656Z" fill="white"/>
<path d="M20.6199 53.0966L18.354 54.424H19.8268L20.6199 53.0966Z" fill="white"/>
<path d="M42.2975 24.4238H43.355V25.4858L42.2975 24.4238Z" fill="#39393A"/>
<path d="M47.056 24.9548H48.1135V25.7512H47.056V24.9548Z" fill="#39393A"/>
<path d="M53.4007 24.6893L52.3432 26.0167V27.0787L53.4007 27.6096H56.573L53.4007 24.6893Z" fill="#39393A"/>
<path d="M50.2283 29.2025H53.1363L54.1937 29.7335H50.2283V29.2025Z" fill="#39393A"/>
<path d="M11.8962 49.9101L13.7467 42.7421L16.1259 47.2553L11.8962 49.9101Z" fill="#39393A"/>
<path d="M17.4477 45.1314L19.0339 46.7243H23.2636L25.3785 45.1314V44.6005H20.6201L17.4477 45.1314Z" fill="#39393A"/>
<path d="M34.3668 46.4589L31.4588 48.3172V50.7066L37.0104 51.2375L34.3668 46.4589Z" fill="#39393A"/>
<path d="M33.838 52.5649H31.7232L31.4588 52.8304L33.3093 54.6888L35.1598 51.503L33.838 52.5649Z" fill="#39393A"/>
<path d="M20.0913 55.7507L17.7121 57.0781L17.9765 58.1401L28.2865 59.202L25.3785 56.8127H23.7924L22.7349 56.2817L21.1488 55.7507H20.0913Z" fill="#39393A"/>
<path d="M1.05744 45.6624L5.81591 55.2198L6.08027 56.5472L2.11488 52.5649L0 51.2375L0.26436 45.6624H1.05744Z" fill="#39393A"/>
<path d="M35.9531 28.6721V30.265L38.0679 34.5128V35.5747L35.16 39.5569L28.551 35.5747V30.796L28.0223 28.6721L31.7233 27.3447L35.9531 28.6721Z" fill="url(#paint0_linear)"/>
<path d="M27.7577 37.6963L26.4359 40.0856V43.0059L31.4587 45.1298L34.1023 43.2714L33.0448 40.0856L27.7577 37.6963Z" fill="url(#paint1_linear)"/>
<path d="M4.22974 39.5543V45.1294L7.40205 48.0497L13.7467 42.7401V37.1649L10.0456 34.2446L6.87333 34.5101L4.22974 39.5543Z" fill="url(#paint2_linear)"/>
<path d="M17.9766 36.9014L15.8618 40.8836L16.9192 44.3349L22.9995 42.742L24.5856 39.0252L23.2638 36.9014H17.9766Z" fill="url(#paint3_linear)"/>
<path d="M26.7001 50.174L26.9644 45.1299L31.4585 47.7847V50.705L28.5506 51.7669L26.7001 50.174Z" fill="url(#paint4_linear)"/>
<path d="M47.0561 26.5469H44.4125L43.8838 27.6088V28.6707L45.4699 30.2636H48.6423V28.6707L48.1135 27.0778L47.0561 26.5469Z" fill="url(#paint5_linear)"/>
<path d="M41.2402 28.1387H38.0679L38.8609 34.2448L42.8263 32.9174L43.3551 32.3864L41.2402 28.1387Z" fill="url(#paint6_linear)"/>
<path d="M26.4359 29.2002L13.7466 31.5895C13.7466 31.5895 14.9777 32.6703 15.5972 33.4479L16.919 35.5718L23.7923 35.0408L26.7003 32.9169L26.4359 29.2002Z" fill="url(#paint7_linear)"/>
</g>
<path d="M80.62 32C79.6467 32 78.84 31.92 78.2 31.76C77.24 31.5067 76.3733 31.0601 75.6 30.42C74.8267 29.7667 74.22 28.98 73.78 28.06C73.34 27.1267 73.12 26.14 73.12 25.1C73.12 24.0467 73.34 23.06 73.78 22.14C74.22 21.2067 74.8267 20.42 75.6 19.78C76.3733 19.1267 77.2467 18.68 78.22 18.44C78.8467 18.28 79.6467 18.2 80.62 18.2H80.82V21.5H80.62C79.54 21.5 78.68 21.72 78.04 22.16C77.5867 22.4667 77.22 22.8867 76.94 23.42C76.66 23.9534 76.52 24.5134 76.52 25.1C76.52 25.6867 76.66 26.2467 76.94 26.78C77.22 27.3134 77.5867 27.7334 78.04 28.04C78.68 28.4801 79.54 28.7 80.62 28.7H80.82V32H80.62Z" fill="#404041"/>
<path d="M83.3664 18.2H86.7664C87.6064 18.2 88.4197 18.38 89.2064 18.74C90.0064 19.1 90.6464 19.58 91.1264 20.18C91.6064 19.58 92.2397 19.1 93.0264 18.74C93.8264 18.38 94.6464 18.2 95.4864 18.2H98.8864V32H95.4864V21.6H95.4464C94.9931 21.6267 94.5531 21.7534 94.1264 21.98C93.7131 22.2067 93.3664 22.5334 93.0864 22.96C92.8197 23.3867 92.6864 23.9 92.6864 24.5V32H89.5664V24.5C89.5664 23.9 89.4264 23.3867 89.1464 22.96C88.8797 22.5334 88.5331 22.2067 88.1064 21.98C87.6931 21.7534 87.2597 21.6267 86.8064 21.6H86.7664V32H83.3664V18.2Z" fill="#404041"/>
<path d="M108.5 32.3C107.18 32.3 105.966 31.9801 104.86 31.34C103.766 30.7 102.9 29.8267 102.26 28.72C101.62 27.6134 101.3 26.4 101.3 25.08C101.3 23.7734 101.62 22.5734 102.26 21.48C102.9 20.3734 103.766 19.5 104.86 18.86C105.966 18.22 107.18 17.9 108.5 17.9C109.82 17.9 111.033 18.22 112.14 18.86C113.246 19.5 114.12 20.3734 114.76 21.48C115.413 22.5734 115.74 23.7734 115.74 25.08C115.74 26.4 115.413 27.6134 114.76 28.72C114.12 29.8267 113.246 30.7 112.14 31.34C111.033 31.9801 109.82 32.3 108.5 32.3ZM108.52 28.98C109.2 28.98 109.833 28.8067 110.42 28.46C111.006 28.1134 111.473 27.6467 111.82 27.06C112.166 26.46 112.34 25.8134 112.34 25.12C112.34 24.4267 112.166 23.7867 111.82 23.2C111.473 22.6 111.006 22.12 110.42 21.76C109.833 21.4 109.2 21.22 108.52 21.22C107.826 21.22 107.186 21.4 106.6 21.76C106.013 22.1067 105.546 22.58 105.2 23.18C104.866 23.78 104.7 24.4267 104.7 25.12C104.7 25.8134 104.866 26.46 105.2 27.06C105.546 27.6467 106.013 28.1134 106.6 28.46C107.186 28.8067 107.826 28.98 108.52 28.98Z" fill="#404041"/>
<path d="M127.967 32H124.567V22.18C122.567 22.9534 121.567 24.8 121.567 27.72V32H118.167V27.64C118.167 25.5334 118.581 23.78 119.407 22.38C120.234 20.9667 121.381 19.92 122.847 19.24C124.314 18.5467 126.021 18.2 127.967 18.2V32Z" fill="#404041"/>
<path d="M130.558 18.2H139.278V21.5H133.958V23.5H137.558V26.7H133.958V28.7H139.278V32H130.558V18.2Z" fill="#404041"/>
<path d="M141.874 18.2H145.274V23.5H149.274V18.2H152.674V32H149.274V26.7H145.274V32H141.874V18.2Z" fill="#404041"/>
<path d="M162.6 32C161.627 32 160.82 31.92 160.18 31.76C159.22 31.5067 158.354 31.0601 157.58 30.42C156.807 29.7667 156.2 28.98 155.76 28.06C155.32 27.1267 155.1 26.14 155.1 25.1C155.1 24.0467 155.32 23.06 155.76 22.14C156.2 21.2067 156.807 20.42 157.58 19.78C158.354 19.1267 159.227 18.68 160.2 18.44C160.827 18.28 161.627 18.2 162.6 18.2H162.8V21.5H162.6C161.52 21.5 160.66 21.72 160.02 22.16C159.567 22.4667 159.2 22.8867 158.92 23.42C158.64 23.9534 158.5 24.5134 158.5 25.1C158.5 25.6867 158.64 26.2467 158.92 26.78C159.2 27.3134 159.567 27.7334 160.02 28.04C160.66 28.4801 161.52 28.7 162.6 28.7H162.8V32H162.6Z" fill="#404041"/>
<path d="M165.347 18.2H168.747V23.76L171.647 18.2H175.247L171.907 24.64L172.007 24.68C173.047 25.1067 173.814 25.8267 174.307 26.84C174.8 27.84 175.047 28.9934 175.047 30.3V32H171.647V30.3C171.647 29.2734 171.407 28.4667 170.927 27.88C170.447 27.2934 169.734 27 168.787 27H168.747V32H165.347V18.2Z" fill="#404041"/>
<path d="M177.64 18.2H181.04V24.5L187.88 17.8V32H184.48V25.6L177.64 32.4V18.2Z" fill="#404041"/>
<path d="M190.48 18.2H199.2V21.5H193.88V23.5H197.48V26.7H193.88V28.7H199.2V32H190.48V18.2Z" fill="#404041"/>
<path d="M73.3 42.2H76.7C77.54 42.2 78.3533 42.38 79.14 42.74C79.94 43.1 80.58 43.58 81.06 44.18C81.54 43.58 82.1733 43.1 82.96 42.74C83.76 42.38 84.58 42.2 85.42 42.2H88.82V56H85.42V45.6H85.38C84.9267 45.6267 84.4867 45.7534 84.06 45.98C83.6467 46.2067 83.3 46.5334 83.02 46.96C82.7533 47.3867 82.62 47.9 82.62 48.5V56H79.5V48.5C79.5 47.9 79.36 47.3867 79.08 46.96C78.8133 46.5334 78.4667 46.2067 78.04 45.98C77.6267 45.7534 77.1933 45.6267 76.74 45.6H76.7V56H73.3V42.2Z" fill="#404041"/>
<path d="M91.3533 51.7201C91.3533 49.5867 91.7666 47.8134 92.5933 46.4001C93.4199 44.9734 94.5666 43.92 96.0333 43.24C97.4999 42.5467 99.2066 42.2 101.153 42.2V56H97.7533V54H94.7533V56H91.3533V51.7201ZM97.7533 50.7001V46.18C95.9933 46.8734 95.0066 48.3801 94.7933 50.7001H97.7533Z" fill="#404041"/>
<path d="M103.745 42.2H107.145V52.7001H109.645V42.2H113.025V52.7001H115.525V42.2H118.925V56H103.745V42.2Z" fill="#404041"/>
<path d="M121.527 42.2H124.927V48.5L131.767 41.8V56H128.367V49.6L121.527 56.4001V42.2Z" fill="#404041"/>
<path d="M134.366 42.2H137.766V47.5H141.766V42.2H145.166V56H141.766V50.7001H137.766V56H134.366V42.2Z" fill="#404041"/>
<path d="M147.773 42.2H151.173V47.1H153.313C154.206 47.1 154.993 47.3134 155.673 47.74C156.353 48.1667 156.873 48.7267 157.233 49.42C157.593 50.1 157.773 50.8134 157.773 51.5601C157.773 52.3067 157.593 53.0201 157.233 53.7001C156.873 54.3801 156.353 54.9334 155.673 55.3601C154.993 55.7867 154.206 56 153.313 56H147.773V42.2ZM158.453 42.2H161.853V56H158.453V42.2ZM153.313 52.8C153.619 52.8 153.873 52.68 154.073 52.44C154.286 52.2 154.393 51.9067 154.393 51.5601C154.393 51.2134 154.286 50.9201 154.073 50.68C153.873 50.4267 153.619 50.3 153.313 50.3H151.173V52.8H153.313Z" fill="#404041"/>
<defs>
<linearGradient id="paint0_linear" x1="36.4818" y1="31.8579" x2="28.551" y2="31.8579" gradientUnits="userSpaceOnUse">
<stop stop-color="#D3D4D6"/>
<stop offset="1" stop-color="white"/>
</linearGradient>
<linearGradient id="paint1_linear" x1="33.8379" y1="41.944" x2="26.4359" y2="41.944" gradientUnits="userSpaceOnUse">
<stop stop-color="#D3D4D6"/>
<stop offset="1" stop-color="white"/>
</linearGradient>
<linearGradient id="paint2_linear" x1="13.7467" y1="41.4127" x2="4.22974" y2="41.4127" gradientUnits="userSpaceOnUse">
<stop stop-color="#D2D3D5"/>
<stop offset="1" stop-color="white"/>
</linearGradient>
<linearGradient id="paint3_linear" x1="24.3213" y1="40.8836" x2="15.8618" y2="40.8836" gradientUnits="userSpaceOnUse">
<stop stop-color="#D4D5D7"/>
<stop offset="1" stop-color="white"/>
</linearGradient>
<linearGradient id="paint4_linear" x1="31.7229" y1="49.1121" x2="26.9644" y2="49.1121" gradientUnits="userSpaceOnUse">
<stop stop-color="#D3D4D6"/>
<stop offset="1" stop-color="white"/>
</linearGradient>
<linearGradient id="paint5_linear" x1="48.6423" y1="28.6707" x2="44.6769" y2="28.6707" gradientUnits="userSpaceOnUse">
<stop stop-color="#D4D4D6"/>
<stop offset="1" stop-color="white"/>
</linearGradient>
<linearGradient id="paint6_linear" x1="38.3322" y1="30.7935" x2="42.8263" y2="30.7935" gradientUnits="userSpaceOnUse">
<stop stop-color="white"/>
<stop offset="1" stop-color="#D6D6D8"/>
</linearGradient>
<linearGradient id="paint7_linear" x1="26.4359" y1="31.855" x2="14.2754" y2="31.855" gradientUnits="userSpaceOnUse">
<stop stop-color="#D5D6D8"/>
<stop offset="1" stop-color="white"/>
</linearGradient>
</defs>
</svg>
